# xmcd CD database file
#
# Track frame offsets:
#	150
#	33831
#	69114
#	90074
#	115310
#	130696
#	162901
#	181400
#	205850
#	225703
#
# Disc length: 3250 seconds
#
# Revision: 0
# Processed by: cddbd v1.5.2PL0 Copyright (c) Steve Scherf et al.
# Submitted via: CDex 1.51
#
DISCID=710cb00a
DTITLE=Alexandra Lehmler - Jazz, Baby!
DYEAR=2013
DGENRE=Jazz
TTITLE0=Autoroute du Soleil
TTITLE1=Superheld
TTITLE2=Snow in Summer
TTITLE3=Thermoskop
TTITLE4=What's next?
TTITLE5=Unterirdisch
TTITLE6=Klassentreff
TTITLE7=Traenenmeer
TTITLE8=Weltuntergang
TTITLE9=Hangover
EXTD=YEAR: 2013
EXTT0=
EXTT1=
EXTT2=
EXTT3=
EXTT4=
EXTT5=
EXTT6=
EXTT7=
EXTT8=
EXTT9=
PLAYORDER=
